<?xml version="1.0" standalone="no"?>
<!DOCTYPE svg PUBLIC "-//W3C//DTD SVG 20010904//EN"
 "http://www.w3.org/TR/2001/REC-SVG-20010904/DTD/svg10.dtd">
<svg version="1.0" xmlns="http://www.w3.org/2000/svg"
 width="920.000000pt" height="920.000000pt" viewBox="0 0 920.000000 920.000000"
 preserveAspectRatio="xMidYMid meet">

<g transform="translate(0.000000,920.000000) scale(0.100000,-0.100000)"
fill="#000000" stroke="none">
<path d="M4420 8384 c-236 -14 -547 -54 -690 -88 -564 -135 -1149 -433 -1580
-805 -184 -159 -417 -403 -573 -601 -191 -242 -414 -650 -526 -960 -23 -63
-46 -123 -51 -132 -18 -32 -99 -333 -120 -447 -46 -247 -75 -639 -65 -871 8
-196 38 -489 65 -633 21 -112 102 -414 120 -445 5 -9 28 -69 51 -132 87 -240
205 -475 375 -742 252 -396 695 -842 1094 -1098 443 -285 951 -490 1390 -560
449 -72 933 -72 1380 0 63 10 136 23 161 29 75 17 329 91 347 101 10 5 69 28
132 51 150 54 348 144 485 220 143 80 395 239 395 250 0 5 5 9 11 9 5 0 42 26
82 57 257 205 519 468 720 723 197 251 433 685 538 990 18 52 36 100 40 105 9
12 82 264 103 356 103 451 105 1177 5 1654 -16 74 -100 368 -108 380 -4 6 -22
53 -40 105 -105 305 -341 739 -538 990 -208 264 -476 532 -738 736 -99 77
-324 223 -425 275 -36 19 -67 37 -70 41 -18 23 -421 199 -545 238 -22 7 -44
16 -50 20 -11 9 -266 83 -344 101 -63 14 -264 47 -331 53 -30 3 -98 10 -150
16 -108 11 -453 20 -550 14z m2275 -1125 c252 -35 454 -205 532 -448 l28 -86
0 -2125 0 -2125 -28 -88 c-65 -201 -216 -353 -416 -418 l-96 -32 -2109 2
c-2292 1 -2158 -2 -2285 54 -57 25 -155 94 -197 139 -57 60 -124 170 -140 227
-8 31 -20 67 -27 81 -9 19 -13 515 -15 2102 -2 1874 0 2152 20 2228 33 123 82
216 161 299 94 98 241 172 379 190 99 13 4101 13 4193 0z"/>
<path d="M4623 7213 c-11 -15 -34 -53 -51 -84 -18 -32 -38 -59 -45 -61 -6 -3
-46 -6 -87 -7 -41 -1 -84 -4 -95 -6 -11 -2 -42 -7 -70 -10 -419 -48 -779 -173
-1095 -379 -235 -154 -430 -342 -595 -576 -91 -129 -201 -336 -255 -481 -17
-46 -38 -101 -46 -122 -55 -146 -118 -481 -129 -691 -2 -37 -5 -69 -7 -71 -2
-1 -45 -26 -95 -55 -51 -29 -93 -56 -93 -60 0 -4 40 -31 90 -59 l90 -52 2
-1007 c3 -963 4 -1009 22 -1057 47 -124 150 -229 268 -275 l63 -25 997 -3 997
-3 48 -84 c26 -47 52 -84 57 -82 6 2 30 37 53 78 22 41 46 80 52 87 7 7 37 12
74 12 198 2 563 78 797 166 805 306 1340 1009 1460 1920 11 82 20 175 20 206
0 64 -7 57 133 139 31 18 56 38 54 43 -2 5 -16 16 -33 25 -16 9 -55 31 -86 49
l-58 33 0 968 c0 928 -1 971 -20 1044 -35 139 -143 260 -275 309 l-60 23 -980
5 -980 5 -42 74 c-55 97 -57 98 -80 64z m225 -444 c295 -538 341 -623 337
-627 -4 -4 -87 19 -100 29 -26 18 -228 59 -343 70 -209 19 -486 -13 -643 -76
-66 -26 -85 -63 226 450 104 171 199 328 212 350 13 22 35 58 49 80 13 22 30
50 36 63 6 12 16 21 21 19 6 -2 98 -163 205 -358z m1166 -920 c-59 -145 -116
-290 -128 -321 -12 -31 -24 -59 -27 -62 -3 -3 -61 10 -129 29 -68 19 -131 35
-140 35 -32 0 -58 29 -65 72 -4 24 -16 81 -27 126 -10 46 -18 93 -16 103 3 20
36 36 358 176 58 25 143 63 190 84 47 21 86 35 88 31 1 -5 -46 -127 -104 -273z
m-2689 176 c132 -53 258 -104 280 -114 22 -10 58 -24 80 -31 22 -7 43 -17 46
-22 7 -11 -64 -295 -77 -307 -5 -5 -47 -17 -94 -26 -47 -9 -107 -23 -134 -31
-67 -19 -75 -18 -87 12 -5 15 -27 66 -49 113 -31 69 -194 435 -217 489 -3 6
-1 12 4 12 5 0 117 -43 248 -95z m1485 75 c174 -25 315 -68 474 -147 141 -69
140 -68 159 -170 9 -48 24 -119 32 -158 22 -97 18 -105 -30 -61 -174 157 -433
274 -680 307 -136 18 -347 6 -466 -25 -221 -59 -409 -155 -551 -284 -44 -40
-46 -33 -22 63 8 33 25 103 37 155 l22 95 50 32 c55 36 226 114 301 137 215
65 462 86 674 56z m-98 -490 c168 -16 310 -71 443 -172 145 -110 233 -257 292
-482 21 -82 26 -132 30 -261 5 -156 1 -199 -31 -338 -17 -75 -86 -229 -137
-304 -184 -272 -457 -438 -760 -462 -242 -20 -409 20 -595 141 -36 22 -62 43
-60 45 5 5 11 3 146 -41 172 -55 337 -55 514 1 326 102 565 368 615 683 26
163 7 325 -59 495 -40 101 -49 116 -114 181 -82 81 -165 121 -276 132 -241 25
-434 -77 -529 -279 -74 -155 -88 -260 -50 -371 11 -34 34 -79 51 -101 57 -72
189 -116 229 -76 25 25 27 117 4 125 -9 4 -28 27 -43 53 -57 97 -26 225 69
284 59 36 145 39 206 8 162 -82 239 -309 184 -540 -27 -114 -56 -166 -132
-242 -94 -94 -144 -113 -309 -113 -178 -1 -284 32 -420 130 -95 68 -191 212
-236 354 -21 68 -31 302 -16 375 6 28 16 72 21 99 17 75 88 228 144 308 146
208 367 340 617 367 41 5 80 9 85 10 6 0 58 -4 117 -9z m-1039 -106 c4 -4 -16
-32 -44 -62 -140 -153 -261 -402 -301 -617 -17 -91 -17 -380 0 -469 19 -99 78
-269 125 -356 45 -85 132 -212 173 -253 15 -15 24 -30 20 -34 -6 -6 -270 50
-314 68 -50 20 -154 239 -201 427 -66 260 -68 498 -6 753 29 120 52 180 110
300 76 154 86 166 152 179 32 7 105 24 163 40 58 15 108 28 111 29 3 0 9 -2
12 -5z m1972 -32 c55 -16 132 -37 172 -46 68 -17 72 -20 101 -66 28 -45 94
-185 120 -255 45 -121 92 -385 92 -515 0 -86 -33 -302 -63 -415 -44 -164 -161
-401 -201 -410 -12 -2 -59 -13 -106 -24 -174 -41 -223 -51 -227 -47 -3 2 19
33 49 68 111 131 178 251 237 423 52 154 63 226 64 405 0 171 -13 258 -60 399
-57 172 -154 344 -257 455 -25 27 -46 51 -46 53 0 8 31 1 125 -25z m631 -374
c108 -60 467 -263 644 -363 80 -45 160 -90 178 -99 17 -9 32 -20 32 -24 0 -4
-73 -51 -162 -103 -90 -53 -309 -182 -487 -287 -178 -106 -327 -192 -332 -192
-4 0 3 32 17 71 78 224 101 498 63 749 -5 36 -24 112 -41 170 -17 58 -33 116
-36 130 -5 24 -5 24 20 8 14 -9 61 -36 104 -60z m-3226 52 c0 -5 -7 -27 -15
-47 -32 -82 -65 -243 -76 -370 -19 -217 8 -439 75 -632 14 -39 21 -71 16 -71
-5 0 -64 33 -132 73 -208 124 -556 330 -705 418 -79 46 -143 87 -143 90 0 6
55 38 370 214 41 24 145 82 230 130 144 82 281 158 340 191 30 16 40 17 40 4z
m434 -1451 c72 -17 136 -33 142 -34 6 -2 21 -47 33 -102 13 -54 30 -122 38
-152 8 -29 11 -57 6 -62 -9 -8 -166 -80 -348 -159 -66 -28 -140 -61 -165 -72
-87 -40 -110 -48 -110 -40 0 5 50 132 111 283 61 151 118 295 127 322 9 26 20
47 26 47 5 0 68 -14 140 -31z m2376 2 c0 -8 156 -366 222 -511 40 -87 48 -110
39 -110 -8 0 -515 200 -556 220 -11 5 -37 16 -58 24 -29 12 -37 20 -33 33 2
10 18 72 35 138 16 66 32 128 36 137 5 12 31 22 83 33 43 9 100 23 127 30 61
15 105 18 105 6z m-1968 -187 c110 -73 269 -142 418 -181 77 -20 374 -28 483
-14 233 31 490 152 660 310 32 30 47 39 47 27 0 -32 -82 -341 -93 -353 -19
-19 -125 -75 -217 -115 -234 -102 -566 -144 -812 -102 -206 34 -416 110 -562
201 l-50 31 -38 149 c-21 81 -41 163 -45 182 l-6 34 74 -63 c41 -34 104 -82
141 -106z m333 -518 c268 -68 606 -55 864 34 34 12 65 20 68 17 2 -3 -19 -45
-48 -94 -28 -48 -96 -164 -150 -258 -261 -455 -358 -620 -366 -622 -4 -2 -63
93 -129 210 -175 306 -407 708 -427 738 -9 14 -14 28 -11 31 3 4 36 -4 72 -17
37 -13 94 -30 127 -39z"/>
<path d="M2520 7063 c-68 -11 -150 -47 -202 -88 -82 -64 -134 -144 -165 -256
-4 -13 -9 -246 -10 -518 -3 -443 -2 -493 12 -481 8 7 15 18 15 25 0 35 151
313 244 450 172 252 438 506 694 664 107 66 277 154 340 176 28 11 52 23 52
27 0 8 -932 9 -980 1z"/>
<path d="M7020 3443 c-67 -166 -193 -381 -317 -541 -88 -115 -114 -144 -212
-241 -184 -181 -390 -326 -623 -440 -87 -42 -157 -79 -158 -83 0 -13 908 -10
976 3 186 34 334 183 364 364 12 72 14 995 2 995 -5 0 -19 -26 -32 -57z"/>
</g>
</svg>
